<?xml version="1.0" encoding="UTF-8"?>
<svg version="1.1" xmlns="http://www.w3.org/2000/svg" width="1536" height="1024">
<path d="M0 0 C506.88 0 1013.76 0 1536 0 C1536 337.92 1536 675.84 1536 1024 C1029.12 1024 522.24 1024 0 1024 C0 686.08 0 348.16 0 0 Z " fill="#151128" transform="translate(0,0)"/>
<path d="M0 0 C3.3 0 6.6 0 10 0 C10.33 0.99 10.66 1.98 11 3 C11.54914062 2.5153125 12.09828125 2.030625 12.6640625 1.53125 C16.76933018 -1.15982848 21.27251166 -0.76403852 26 0 C28.57550378 1.41284779 29.97583459 2.81171307 32 5 C32.825 4.175 33.65 3.35 34.5 2.5 C37.66951642 -0.13129665 39.97787998 -0.64664229 44.046875 -0.3515625 C48.43609286 0.43849672 51.13855743 2.07613405 54.15625 5.3125 C57.31482371 10.23861993 56.41484092 16.25772861 56.25 21.875 C56.23195313 23.0403125 56.21390625 24.205625 56.1953125 25.40625 C56.1483382 28.27168249 56.08266293 31.13541168 56 34 C52.7 34 49.4 34 46 34 C45.94392578 31.54433594 45.94392578 31.54433594 45.88671875 29.0390625 C45.82107703 26.90101806 45.75462909 24.76299826 45.6875 22.625 C45.65366211 21.00464844 45.65366211 21.00464844 45.61914062 19.3515625 C45.58369141 18.3203125 45.54824219 17.2890625 45.51171875 16.2265625 C45.48553467 15.27346191 45.45935059 14.32036133 45.43237305 13.33837891 C45.21834839 12.18088135 45.21834839 12.18088135 45 11 C41.76746204 8.84497469 40.74849077 8.53143865 37 9 C34.80958181 10.63729891 34.08435042 11.55748179 33.56762695 14.26831055 C33.54144287 15.13238525 33.51525879 15.99645996 33.48828125 16.88671875 C33.45283203 17.82451172 33.41738281 18.76230469 33.38085938 19.72851562 C33.35830078 20.70498047 33.33574219 21.68144531 33.3125 22.6875 C33.27833984 23.67556641 33.24417969 24.66363281 33.20898438 25.68164062 C33.12650431 28.12069399 33.06157567 30.56032939 33 33 C29.7 33 26.4 33 23 33 C22.93941406 31.42347656 22.87882813 29.84695313 22.81640625 28.22265625 C22.73202013 26.16926057 22.64737117 24.11587569 22.5625 22.0625 C22.52318359 21.02158203 22.48386719 19.98066406 22.44335938 18.90820312 C22.40146484 17.91884766 22.35957031 16.92949219 22.31640625 15.91015625 C22.27974854 14.99371338 22.24309082 14.07727051 22.20532227 13.13305664 C22.22996136 11.0179272 22.22996136 11.0179272 21 10 C16.98342857 9.77081758 16.98342857 9.77081758 13 10 C10.51942372 12.48057628 10.70980995 13.36192464 10.5859375 16.7890625 C10.52792969 18.20058594 10.52792969 18.20058594 10.46875 19.640625 C10.42234375 21.11789062 10.42234375 21.11789062 10.375 22.625 C10.31699219 24.11386719 10.31699219 24.11386719 10.2578125 25.6328125 C10.16337339 28.08822942 10.08059119 30.54408957 10 33 C6.7 33 3.4 33 0 33 C0 22.11 0 11.22 0 0 Z " fill="#EEEEEF" transform="translate(641,420)"/>
<path d="M0 0 C3.78443516 2.69610086 6.30988589 5.82809517 7.79296875 10.27734375 C8.38098856 16.27514578 7.09136157 20.36188172 3.79296875 25.27734375 C-0.68841285 29.64381813 -4.83264739 31.36482127 -11.01953125 31.71484375 C-16.4904913 31.57623522 -20.2289188 30.04463457 -24.20703125 26.27734375 C-27.94115353 21.52002977 -28.85898006 16.5685721 -28.59375 10.60546875 C-27.80041335 5.82942184 -25.14654299 3.14639211 -21.70703125 -0.03515625 C-15.12164172 -4.48029419 -6.72723152 -3.7731578 0 0 Z " fill="#F2F2F3" transform="translate(551.20703125,422.72265625)"/>
<path d="M0 0 C3.3 0 6.6 0 10 0 C10.33 5.61 10.66 11.22 11 17 C12.65 15.68 14.3 14.36 16 13 C20.34241225 12.04089329 24.22484038 12.72725865 28.375 14.1875 C31.3652583 16.25220216 32.4075546 17.75568317 34 21 C34.34057617 23.86254883 34.34057617 23.86254883 34.29296875 26.95703125 C34.2784668 28.62475586 34.2784668 28.62475586 34.26367188 30.32617188 C34.23853516 31.47666016 34.21339844 32.62714844 34.1875 33.8125 C34.16719727 35.56723633 34.16719727 35.56723633 34.14648438 37.35742188 C34.11120278 40.238752 34.0619028 43.11913904 34 46 C30.7 46 27.4 46 24 46 C23.96261719 44.43507813 23.92523437 42.87015625 23.88671875 41.2578125 C23.82107623 39.213517 23.75462832 37.16924725 23.6875 35.125 C23.66494141 34.09246094 23.64238281 33.05992187 23.61914062 31.99609375 C23.58369141 31.00996094 23.54824219 30.02382813 23.51171875 29.0078125 C23.48553467 28.09660645 23.45935059 27.18540039 23.43237305 26.24658203 C23.28968994 25.50520996 23.14700684 24.76383789 23 24 C19.53076119 21.68717413 18.07794425 21.57521414 14 22 C11.78324557 23.62570709 11.08633346 24.5470784 10.56762695 27.26831055 C10.54144287 28.13238525 10.51525879 28.99645996 10.48828125 29.88671875 C10.45283203 30.82451172 10.41738281 31.76230469 10.38085938 32.72851562 C10.34702148 34.19321289 10.34702148 34.19321289 10.3125 35.6875 C10.27833984 36.67556641 10.24417969 37.66363281 10.20898438 38.68164062 C10.12650431 41.12069399 10.06157567 43.56032939 10 46 C6.7 46 3.4 46 0 46 C0 30.82 0 15.64 0 0 Z " fill="#EFEEF0" transform="translate(564,407)"/>
<path d="M0 0 C3.3 0 6.6 0 10 0 C10.33 8.25 10.66 16.5 11 25 C18.4578848 17.91923882 18.4578848 17.91923882 22 13 C24.69921875 12.609375 24.69921875 12.609375 27.6875 12.75 C28.68136719 12.78609375 29.67523437 12.8221875 30.69921875 12.859375 C31.83810547 12.92898438 31.83810547 12.92898438 33 13 C33 15 33 15 30.8125 17.3125 C28.95732767 19.08522023 27.06129504 20.81626519 25.125 22.5 C22.74129407 24.73399131 22.74129407 24.73399131 23.08203125 27.20703125 C24.31994492 30.97344944 26.33915717 33.92909404 28.5625 37.1875 C33 43.75284522 33 43.75284522 33 46 C29.13952554 46.69111568 25.82725588 46.95937916 22 46 C18.9143357 42.69844451 16.93361075 39.06520213 15 35 C12.525 35.495 12.525 35.495 10 36 C10 39.63 10 43.26 10 47 C6.7 47 3.4 47 0 47 C0 31.49 0 15.98 0 0 Z " fill="#EEEEF0" transform="translate(720,407)"/>
<path d="M0 0 C2.52274295 1.81120006 3.84329719 3.10011865 5.4375 5.75 C5.77807617 8.59082031 5.77807617 8.59082031 5.73046875 11.828125 C5.7159668 13.56835938 5.7159668 13.56835938 5.70117188 15.34375 C5.67603516 16.5503125 5.65089844 17.756875 5.625 19 C5.60469727 20.83304687 5.60469727 20.83304687 5.58398438 22.703125 C5.5486398 25.71919498 5.4992956 28.73437487 5.4375 31.75 C2.4675 31.75 -0.5025 31.75 -3.5625 31.75 C-3.8925 31.09 -4.2225 30.43 -4.5625 29.75 C-5.366875 30.245 -6.17125 30.74 -7 31.25 C-11.36932954 33.0897177 -14.88564481 33.52659957 -19.5625 32.75 C-22.68318856 30.95726402 -24.11215052 29.50740595 -25.9375 26.4375 C-26.78135431 22.80892647 -26.54260949 20.34373478 -25.5625 16.75 C-22.10087196 13.28837196 -19.35852603 11.80591613 -14.42578125 11.65234375 C-13.25402344 11.66394531 -12.08226562 11.67554688 -10.875 11.6875 C-9.10576172 11.70103516 -9.10576172 11.70103516 -7.30078125 11.71484375 C-6.39714844 11.72644531 -5.49351562 11.73804688 -4.5625 11.75 C-4.91036708 9.77463255 -4.91036708 9.77463255 -5.5625 7.75 C-7.90187907 6.58031047 -9.33619368 6.61635779 -11.9375 6.625 C-12.70835937 6.62242187 -13.47921875 6.61984375 -14.2734375 6.6171875 C-16.4953189 6.74610212 -18.42868508 7.13616283 -20.5625 7.75 C-23.5625 4 -23.5625 4 -23.5625 1.75 C-15.90051307 -1.78630166 -8.09967127 -2.84198992 0 0 Z " fill="#F0EFF1" transform="translate(936.5625,421.25)"/>
<path d="M0 0 C2.96076431 1.86528152 5.1202146 4.2818935 6.9375 7.234375 C7.27807617 9.98339844 7.27807617 9.98339844 7.23046875 13.09375 C7.2159668 14.76630859 7.2159668 14.76630859 7.20117188 16.47265625 C7.17603516 17.63152344 7.15089844 18.79039062 7.125 19.984375 C7.10469727 21.74587891 7.10469727 21.74587891 7.08398438 23.54296875 C7.0486478 26.44056798 6.99930979 29.33723927 6.9375 32.234375 C3.9675 32.234375 0.9975 32.234375 -2.0625 32.234375 C-2.0625 31.244375 -2.0625 30.254375 -2.0625 29.234375 C-2.84625 29.894375 -3.63 30.554375 -4.4375 31.234375 C-8.74214214 34.06343059 -13.08811172 34.2527537 -18.0625 33.234375 C-21.12974023 31.7416151 -23.17224748 30.0817936 -25.0625 27.234375 C-25.92781147 24.3518764 -25.92829449 22.11640323 -25.0625 19.234375 C-22.88675584 16.54332302 -21.15184144 14.77904572 -18.0625 13.234375 C-15.51092345 13.1627015 -12.98777029 13.14129058 -10.4375 13.171875 C-9.37789062 13.17864258 -9.37789062 13.17864258 -8.296875 13.18554688 C-6.55204725 13.19733625 -4.807263 13.21527176 -3.0625 13.234375 C-4.18104586 9.50823347 -4.18104586 9.50823347 -7.0625 7.234375 C-11.88862943 6.95594446 -15.56157826 7.47791773 -20.0625 9.234375 C-23.0625 5.484375 -23.0625 5.484375 -23.0625 3.234375 C-16.1132245 -1.12595473 -7.98555628 -2.96433529 0 0 Z " fill="#F1F0F2" transform="translate(781.0625,420.765625)"/>
<path d="M0 0 C3.14906988 3.06619962 5.1698189 5.64325247 5.71557617 10.08325195 C5.6920105 11.55217896 5.6920105 11.55217896 5.66796875 13.05078125 C5.6534668 14.65083008 5.6534668 14.65083008 5.63867188 16.28320312 C5.61353516 17.38599609 5.58839844 18.48878906 5.5625 19.625 C5.54219727 21.30819336 5.54219727 21.30819336 5.52148438 23.02539062 C5.4862138 25.78825229 5.43692235 28.55012829 5.375 31.3125 C2.405 31.3125 -0.565 31.3125 -3.625 31.3125 C-3.625 30.3225 -3.625 29.3325 -3.625 28.3125 C-4.09808594 28.61285156 -4.57117188 28.91320312 -5.05859375 29.22265625 C-9.74394261 31.91696018 -13.19871921 32.89127454 -18.57421875 32 C-22.49562788 30.68539427 -24.81825942 27.92598117 -26.625 24.3125 C-27.0625 21 -27.0625 21 -26.625 17.3125 C-22.47143106 12.97013247 -19.48241169 11.40503276 -13.609375 11.21484375 C-12.54203125 11.22644531 -11.4746875 11.23804688 -10.375 11.25 C-9.29734375 11.25902344 -8.2196875 11.26804687 -7.109375 11.27734375 C-6.28953125 11.28894531 -5.4696875 11.30054688 -4.625 11.3125 C-4.97286708 9.33713255 -4.97286708 9.33713255 -5.625 7.3125 C-9.8632509 5.19337455 -14.74312346 6.06053527 -19.125 7.3125 C-19.95 7.6425 -20.775 7.9725 -21.625 8.3125 C-22.285 6.3325 -22.945 4.3525 -23.625 2.3125 C-16.95867873 -2.97458239 -7.70447124 -3.5865642 0 0 Z " fill="#F1F1F2" transform="translate(1014.625,421.6875)"/>
<path d="M0 0 C2.94094807 2.03065462 4.62683812 3.84908433 6.625 6.8125 C7.07910156 9.67504883 7.07910156 9.67504883 7.015625 12.76953125 C6.99628906 14.43725586 6.99628906 14.43725586 6.9765625 16.13867188 C6.94304688 17.28916016 6.90953125 18.43964844 6.875 19.625 C6.85695313 20.79482422 6.83890625 21.96464844 6.8203125 23.16992188 C6.7732644 26.0516178 6.70753709 28.93163797 6.625 31.8125 C3.655 31.8125 0.685 31.8125 -2.375 31.8125 C-2.375 30.8225 -2.375 29.8325 -2.375 28.8125 C-2.87128906 29.10125 -3.36757813 29.39 -3.87890625 29.6875 C-8.55573834 32.24333993 -11.91866962 33.44207658 -17.375 32.8125 C-20.24397932 31.93586743 -21.21091553 31.01174543 -23.125 28.6875 C-24.77073672 24.90230555 -25.30671838 21.86629226 -24.375 17.8125 C-22.26053092 14.7369086 -21.74530478 14.01497055 -18.375 12.8125 C-13.33546475 12.40702015 -8.41748626 12.52380804 -3.375 12.8125 C-3.71944881 10.33983235 -3.71944881 10.33983235 -4.375 7.8125 C-8.9160377 5.54198115 -14.5653935 6.8740402 -19.375 7.8125 C-21.375 4.8125 -21.375 4.8125 -21.375 1.8125 C-14.15492757 -1.39642108 -7.62647699 -2.68339005 0 0 Z " fill="#F3F2F3" transform="translate(627.375,421.1875)"/>
<path d="M0 0 C1.23556641 0.01740234 1.23556641 0.01740234 2.49609375 0.03515625 C3.32238281 0.04417969 4.14867187 0.05320312 5 0.0625 C5.63808594 0.07410156 6.27617188 0.08570313 6.93359375 0.09765625 C7.26359375 1.41765625 7.59359375 2.73765625 7.93359375 4.09765625 C8.57296875 3.43765625 9.21234375 2.77765625 9.87109375 2.09765625 C13.99895346 -0.59808887 17.13136672 -0.59684572 21.93359375 0.09765625 C26.76535204 1.79771935 28.69858548 3.54423486 30.93359375 8.09765625 C31.27416992 10.96020508 31.27416992 10.96020508 31.2265625 14.0546875 C31.21206055 15.72241211 31.21206055 15.72241211 31.19726562 17.42382812 C31.17212891 18.57431641 31.14699219 19.72480469 31.12109375 20.91015625 C31.10079102 22.66489258 31.10079102 22.66489258 31.08007812 24.45507812 C31.04479653 27.33640825 30.99549655 30.21679529 30.93359375 33.09765625 C27.63359375 33.09765625 24.33359375 33.09765625 20.93359375 33.09765625 C20.89621094 31.61652344 20.85882812 30.13539063 20.8203125 28.609375 C20.75466021 26.66794311 20.68821262 24.72653799 20.62109375 22.78515625 C20.59853516 21.80869141 20.57597656 20.83222656 20.55273438 19.82617188 C20.49956055 18.41948242 20.49956055 18.41948242 20.4453125 16.984375 C20.41912842 16.12030029 20.39294434 15.25622559 20.3659668 14.3659668 C19.84714211 11.64411465 19.14791359 10.72680264 16.93359375 9.09765625 C12.84571898 8.56659611 12.84571898 8.56659611 9.27807617 10.31567383 C7.53156481 12.63050703 7.50921761 14.1020689 7.421875 16.984375 C7.38642578 17.92216797 7.35097656 18.85996094 7.31445312 19.82617188 C7.28061523 21.29086914 7.28061523 21.29086914 7.24609375 22.78515625 C7.21193359 23.77322266 7.17777344 24.76128906 7.14257812 25.77929688 C7.06009806 28.21835024 6.99516942 30.65798564 6.93359375 33.09765625 C3.63359375 33.09765625 0.33359375 33.09765625 -3.06640625 33.09765625 C-3.09106017 28.5586792 -3.10924414 24.01974082 -3.12133789 19.48071289 C-3.12637765 17.93545859 -3.13320945 16.39020909 -3.1418457 14.8449707 C-3.15392701 12.62840596 -3.15963798 10.41190407 -3.1640625 8.1953125 C-3.16922379 7.50051285 -3.17438507 6.8057132 -3.17970276 6.08985901 C-3.17989902 4.42536295 -3.12829754 2.76100126 -3.06640625 1.09765625 C-2.06640625 0.09765625 -2.06640625 0.09765625 0 0 Z " fill="#F0F0F1" transform="translate(798.06640625,419.90234375)"/>
<path d="M0 0 C0.81726563 -0.0721875 1.63453125 -0.144375 2.4765625 -0.21875 C7.31926647 0.98213616 10.55876887 3.37409042 13.375 7.5 C14.33480016 12.0247722 14.13594976 16.33826045 13.875 20.9375 C13.83890625 22.14599609 13.8028125 23.35449219 13.765625 24.59960938 C13.67170909 27.56970002 13.5405129 30.53318135 13.375 33.5 C10.405 33.5 7.435 33.5 4.375 33.5 C4.34921875 32.01886719 4.3234375 30.53773438 4.296875 29.01171875 C4.24060149 27.07028272 4.18325399 25.12887761 4.125 23.1875 C4.11082031 22.21103516 4.09664062 21.23457031 4.08203125 20.22851562 C4.04980469 19.29072266 4.01757812 18.35292969 3.984375 17.38671875 C3.96342773 16.52264404 3.94248047 15.65856934 3.92089844 14.76831055 C3.55513837 12.35430553 3.55513837 12.35430553 1.52832031 10.72192383 C-1.40924998 9.05496926 -3.30380147 9.00535341 -6.625 9.5 C-9.32904146 12.33154911 -10.01281029 14.3996809 -10.13671875 18.265625 C-10.17216797 19.15507812 -10.20761719 20.04453125 -10.24414062 20.9609375 C-10.27797852 22.34152344 -10.27797852 22.34152344 -10.3125 23.75 C-10.34666016 24.68585938 -10.38082031 25.62171875 -10.41601562 26.5859375 C-10.49831102 28.89020846 -10.56333713 31.19508463 -10.625 33.5 C-13.595 33.5 -16.565 33.5 -19.625 33.5 C-19.625 22.94 -19.625 12.38 -19.625 1.5 C-16.655 1.5 -13.685 1.5 -10.625 1.5 C-10.625 2.82 -10.625 4.14 -10.625 5.5 C-9.965 5.5 -9.305 5.5 -8.625 5.5 C-8.33625 4.860625 -8.0475 4.22125 -7.75 3.5625 C-5.90621444 0.18222647 -3.61739369 0.22398723 0 0 Z " fill="#F9F8F9" transform="translate(969.625,419.5)"/>
<path d="M0 0 C0.845625 0.4846875 1.69125 0.969375 2.5625 1.46875 C1.875 3.90625 1.875 3.90625 0.5625 6.46875 C-3.15986292 7.65783815 -5.98166079 7.38540689 -9.75 6.53125 C-10.63300781 6.33660156 -11.51601563 6.14195312 -12.42578125 5.94140625 C-13.42158203 5.70744141 -13.42158203 5.70744141 -14.4375 5.46875 C-14.34487384 7.42988143 -14.34487384 7.42988143 -13.4375 9.46875 C-11.06450009 10.6912954 -11.06450009 10.6912954 -8.1875 11.46875 C-0.05619539 14.21795572 -0.05619539 14.21795572 2.5625 17.46875 C3.08063614 20.73300769 3.31987919 22.39647797 2.5625 25.46875 C-0.5023754 29.61534612 -3.42616437 31.40865977 -8.4375 32.46875 C-15.2697239 33.29420456 -19.52579758 31.90828595 -25.4375 28.46875 C-24.7775 26.48875 -24.1175 24.50875 -23.4375 22.46875 C-19.4375 22.46875 -19.4375 22.46875 -17.625 23.46875 C-14.54122341 24.87847644 -11.78160347 24.59736936 -8.4375 24.46875 C-8.1075 23.47875 -7.7775 22.48875 -7.4375 21.46875 C-8.34113281 21.15421875 -9.24476563 20.8396875 -10.17578125 20.515625 C-11.35527344 20.08765625 -12.53476562 19.6596875 -13.75 19.21875 C-14.92175781 18.80109375 -16.09351563 18.3834375 -17.30078125 17.953125 C-20.51985223 16.42977883 -21.78924347 15.57507961 -23.4375 12.46875 C-24.15512265 9.35905186 -24.0764619 6.59132902 -23.4375 3.46875 C-18.32036843 -3.90593961 -7.63509306 -3.40108691 0 0 Z " fill="#F1F0F2" transform="translate(517.4375,421.53125)"/>
<path d="M0 0 C3.3 0 6.6 0 10 0 C10 2.97 10 5.94 10 9 C12.97 9 15.94 9 19 9 C19 11.31 19 13.62 19 16 C16.03 16 13.06 16 10 16 C10.33 21.61 10.66 27.22 11 33 C13.31 33 15.62 33 18 33 C18.33 35.31 18.66 37.62 19 40 C14.34350598 42.55356124 10.01552521 42.31247389 5 41 C2.00547566 38.75410675 1.18376878 37.55130633 0 34 C-0.08021999 32.59175107 -0.10765977 31.18002769 -0.09765625 29.76953125 C-0.09443359 28.96708984 -0.09121094 28.16464844 -0.08789062 27.33789062 C-0.07951172 26.50451172 -0.07113281 25.67113281 -0.0625 24.8125 C-0.05798828 23.96751953 -0.05347656 23.12253906 -0.04882812 22.25195312 C-0.03705403 20.16793845 -0.0191189 18.08396023 0 16 C-1.32 16 -2.64 16 -4 16 C-4 13.69 -4 11.38 -4 9 C-2.68 9 -1.36 9 0 9 C0 6.03 0 3.06 0 0 Z " fill="#EDECEE" transform="translate(838,412)"/>
<path d="M0 0 C1.23556641 0.01740234 1.23556641 0.01740234 2.49609375 0.03515625 C3.32238281 0.04417969 4.14867187 0.05320312 5 0.0625 C5.63808594 0.07410156 6.27617188 0.08570313 6.93359375 0.09765625 C7.00799823 5.25712971 7.06231566 10.41628776 7.09838867 15.57617188 C7.1134337 17.32980798 7.13387479 19.08340672 7.15991211 20.83691406 C7.19648496 23.36402634 7.21336295 25.89063921 7.2265625 28.41796875 C7.24204636 29.19633087 7.25753021 29.97469299 7.27348328 30.77664185 C7.27522465 36.46597265 6.23738175 40.74956464 2.10546875 44.9609375 C-0.68861442 46.42330837 -2.6808878 46.39713905 -5.81640625 46.28515625 C-6.80125 46.25808594 -7.78609375 46.23101562 -8.80078125 46.203125 C-9.5484375 46.16832031 -10.29609375 46.13351562 -11.06640625 46.09765625 C-11.06640625 43.45765625 -11.06640625 40.81765625 -11.06640625 38.09765625 C-10.09703125 38.11828125 -9.12765625 38.13890625 -8.12890625 38.16015625 C-5.1917473 38.45384124 -5.1917473 38.45384124 -4.06640625 37.09765625 C-3.9187001 34.44503658 -3.8314139 31.81509818 -3.78515625 29.16015625 C-3.76674683 28.36488525 -3.7483374 27.56961426 -3.72937012 26.75024414 C-3.67043654 24.1994589 -3.61769367 21.64860603 -3.56640625 19.09765625 C-3.49896698 15.7433404 -3.42529887 12.38924967 -3.34765625 9.03515625 C-3.33408081 8.25599854 -3.32050537 7.47684082 -3.30651855 6.67407227 C-3.15447628 0.14907733 -3.15447628 0.14907733 0 0 Z " fill="#EBEBED" transform="translate(898.06640625,419.90234375)"/>
<path d="M0 0 C2.97 0 5.94 0 9 0 C9 10.89 9 21.78 9 33 C5.7 33 2.4 33 -1 33 C-1.02465392 28.46102295 -1.04283789 23.92208457 -1.05493164 19.38305664 C-1.0599714 17.83780234 -1.0668032 16.29255284 -1.07543945 14.74731445 C-1.08752076 12.53074971 -1.09323173 10.31424782 -1.09765625 8.09765625 C-1.10281754 7.4028566 -1.10797882 6.70805695 -1.11329651 5.99220276 C-1.11349277 4.3277067 -1.06189129 2.66334501 -1 1 C-0.67 0.67 -0.34 0.34 0 0 Z " fill="#E8E7EA" transform="translate(863,420)"/>
<path d="M0 0 C2.61990266 1.65467536 3.69628146 2.91018643 4.53125 5.90625 C5.04243371 9.01982352 5.20647108 11.34617492 4.25 14.375 C3 16 3 16 0 18 C-3.4375 18.4375 -3.4375 18.4375 -7 18 C-9.71538955 15.84161344 -10.78632989 14.23796494 -11.37890625 10.8046875 C-11.57174604 7.03498064 -11.42521047 4.69734517 -9.4375 1.4375 C-6.04481874 -0.56331202 -3.87285839 -0.55326548 0 0 Z " fill="#201C31" transform="translate(544,428)"/>
<path d="M0 0 C0.99 0.66 1.98 1.32 3 2 C3.43132515 6.05445642 3.30019361 7.54970958 1 11 C-0.875 11.3984375 -0.875 11.3984375 -3 11.375 C-3.70125 11.38273437 -4.4025 11.39046875 -5.125 11.3984375 C-7 11 -7 11 -9 8 C-9.35384949 5.16920408 -9.3920891 3.63169911 -7.875 1.1875 C-5.15523346 -0.53501881 -3.15413751 -0.32855599 0 0 Z " fill="#E43215" transform="translate(1035,442)"/>
<path d="M0 0 C2.4375 1.25 2.4375 1.25 4 3 C4 4.32 4 5.64 4 7 C1.72975032 7.08097324 -0.54132075 7.13917704 -2.8125 7.1875 C-4.70935547 7.23970703 -4.70935547 7.23970703 -6.64453125 7.29296875 C-10 7 -10 7 -11.94921875 5.48828125 C-12.29597656 4.99714844 -12.64273438 4.50601562 -13 4 C-8.39224002 0.46738402 -5.95218163 -0.41049528 0 0 Z " fill="#302E40" transform="translate(774,427)"/>
<path d="M0 0 C1.50433594 0.01353516 1.50433594 0.01353516 3.0390625 0.02734375 C3.80992187 0.03894531 4.58078125 0.05054688 5.375 0.0625 C5.50390625 2.44921875 5.50390625 2.44921875 5.375 5.0625 C2.41794322 7.66112565 0.56771463 8.04965236 -3.375 8.3125 C-6.625 8.0625 -6.625 8.0625 -7.625 7.0625 C-7.66580783 5.06291636 -7.66754356 3.06204746 -7.625 1.0625 C-4.98041621 -0.25979189 -2.94738699 -0.03427194 0 0 Z " fill="#292537" transform="translate(1005.625,438.9375)"/>
<path d="M0 0 C1.51400391 0.01740234 1.51400391 0.01740234 3.05859375 0.03515625 C4.07050781 0.04417969 5.08242188 0.05320312 6.125 0.0625 C7.29869141 0.07990234 7.29869141 0.07990234 8.49609375 0.09765625 C8.69140625 4.87109375 8.69140625 4.87109375 6.93359375 6.91015625 C3.63236781 8.51844581 1.12003611 8.43320647 -2.50390625 8.09765625 C-3.16390625 7.43765625 -3.82390625 6.77765625 -4.50390625 6.09765625 C-3.77826013 0.14735804 -3.77826013 0.14735804 0 0 Z " fill="#28253A" transform="translate(769.50390625,438.90234375)"/>
<path d="M0 0 C1.50433594 0.01353516 1.50433594 0.01353516 3.0390625 0.02734375 C3.80992187 0.03894531 4.58078125 0.05054688 5.375 0.0625 C5.5078125 2.44921875 5.5078125 2.44921875 5.375 5.0625 C2.61971198 7.41259861 0.79218927 8.02159909 -2.8125 8.375 C-5.625 8.0625 -5.625 8.0625 -7.625 6.0625 C-7.75 3.4375 -7.75 3.4375 -7.625 1.0625 C-4.98041621 -0.25979189 -2.94738699 -0.03427194 0 0 Z " fill="#262338" transform="translate(927.625,438.9375)"/>
<path d="M0 0 C0.99 0.66 1.98 1.32 3 2 C3 3.32 3 4.64 3 6 C-1.95 6.33 -6.9 6.66 -12 7 C-12.66 5.68 -13.32 4.36 -14 3 C-8.98428297 -0.00943022 -5.69817438 -0.46706347 0 0 Z " fill="#242135" transform="translate(1007,427)"/>
<path d="M0 0 C2.5625 0.25 2.5625 0.25 5.5625 2.25 C6.0034511 5.11618213 5.97751866 6.61655047 4.375 9.0625 C1.91342224 10.67525784 0.45184264 10.6834014 -2.4375 10.25 C-4.3125 9.0625 -4.3125 9.0625 -5.4375 7.25 C-5.14069956 3.19372739 -4.45070653 0.45648272 0 0 Z " fill="#EBEAED" transform="translate(866.4375,405.75)"/>
<path d="M0 0 C0.90492188 0.02320313 1.80984375 0.04640625 2.7421875 0.0703125 C4.10730469 0.09738281 4.10730469 0.09738281 5.5 0.125 C6.19867187 0.14820313 6.89734375 0.17140625 7.6171875 0.1953125 C7.8203125 4.96875 7.8203125 4.96875 5.9921875 7.0078125 C3.00820412 8.49980419 0.91498381 8.4820774 -2.3828125 8.1953125 C-3.0428125 7.8653125 -3.7028125 7.5353125 -4.3828125 7.1953125 C-4.5078125 4.8203125 -4.5078125 4.8203125 -4.3828125 2.1953125 C-2.3828125 0.1953125 -2.3828125 0.1953125 0 0 Z " fill="#232034" transform="translate(616.3828125,438.8046875)"/>
<path d="M0 0 C3 0.25 3 0.25 5 2.25 C5.25 4.75 5.25 4.75 5 7.25 C3 9.25 3 9.25 0 9.5 C-3 9.25 -3 9.25 -5 7.25 C-5.25 4.75 -5.25 4.75 -5 2.25 C-3 0.25 -3 0.25 0 0 Z " fill="#EAEAEC" transform="translate(900,405.75)"/>
<path d="M0 0 C1.14662109 -0.03867187 1.14662109 -0.03867187 2.31640625 -0.078125 C4.93473244 0.32691994 5.78268701 1.24096187 7.4375 3.25 C7.1075 3.91 6.7775 4.57 6.4375 5.25 C4.33361431 5.30402274 2.22933286 5.34280256 0.125 5.375 C-1.63263672 5.40980469 -1.63263672 5.40980469 -3.42578125 5.4453125 C-6.5625 5.25 -6.5625 5.25 -9.5625 3.25 C-8.5625 1.25 -8.5625 1.25 -6.78515625 0.640625 C-4.49295234 0.23777721 -2.32673847 0.04724342 0 0 Z " fill="#2E2C3F" transform="translate(924.5625,426.75)"/>
<path d="M0 0 C6.625 -0.25 6.625 -0.25 10 2 C9.34 2 8.68 2 8 2 C8.33 2.99 8.66 3.98 9 5 C6.08517222 5.80967438 4.53886783 6.21845993 1.6875 5.0625 C1.130625 4.711875 0.57375 4.36125 0 4 C0 2.68 0 1.36 0 0 Z " fill="#2F2C40" transform="translate(503,427)"/>
<path d="M0 0 C0.99 0.33 1.98 0.66 3 1 C2.34 1 1.68 1 1 1 C1.33 1.99 1.66 2.98 2 4 C-1.28696233 4.79953138 -2.71023192 5.09658936 -6 4 C-6 3.34 -6 2.68 -6 2 C-4.7934375 1.7834375 -4.7934375 1.7834375 -3.5625 1.5625 C-1.07896294 1.25864751 -1.07896294 1.25864751 0 0 Z " fill="#242134" transform="translate(510,428)"/>
</svg>
